<svg id="Layer_1" data-name="Layer 1" xmlns="http://www.w3.org/2000/svg" viewBox="0 0 229.34 47.22"><path d="M5.92,49.81q1.81-2.37,3.22-4.56c.54-.85,2-3.19,4.28-7l2.66-4.34c2-3.21,3.26-5.26,3.9-6.16,1.06-1.52,2.12-2.28,3.16-2.28.75,0,1.12.29,1.12.87a3.61,3.61,0,0,1-.43,1.5c-.21.42-.8,1.87-1.75,4.35a44.14,44.14,0,0,0-2.22,8.44,34,34,0,0,0-.57,5.65c0,.46,0,1,.08,1.52s.13,1.16.24,1.83a28.23,28.23,0,0,0,2.75-4.5q1.42-2.94,4.43-9.35,2.85-6.12,6.66-12.72a93.9,93.9,0,0,1,7.47-11c1.35-1.75,2.44-2.62,3.25-2.62a1.43,1.43,0,0,1,1.28,1.37c0,.42-.65,1.45-1.94,3.1a96.9,96.9,0,0,0-7.28,10.72q-4,6.81-9.94,19.37-2.66,5.63-4.06,8c-1,1.63-2.1,2.44-3.37,2.44A2.64,2.64,0,0,1,16.42,53a8.77,8.77,0,0,1-.81-4.24,53,53,0,0,1,1.5-11.22,45,45,0,0,0-3.44,5.22q-1.47,2.51-2.84,4.81c-1.34,2.23-2.22,3.73-2.66,4.5a12.71,12.71,0,0,1-2.06,2.82,2.58,2.58,0,0,1-1.85.75,1.92,1.92,0,0,1-1.84-1.1A3.82,3.82,0,0,1,2,52.72q0-7.44,7.82-26.66,3.81-9.4,4.43-11.53a6.54,6.54,0,0,1,1.13-2.62,2.32,2.32,0,0,1,1.75-.82,1.19,1.19,0,0,1,1.37,1.32,15.9,15.9,0,0,1-1.18,4.84Q16,20.94,13,27.69c-1.35,3.1-2.31,5.43-2.87,7Q6.33,46.15,5.92,49.81Z" transform="translate(-2.01 -8.44)" style="fill:#3fa9f5"/><path d="M41.92,38.22a32,32,0,0,1,4.62-4c2-1.38,3.4-2.06,4.25-2.06a1.58,1.58,0,0,1,1,.43,1.54,1.54,0,0,1,.56,1.16A5.38,5.38,0,0,1,51,36.34a37.51,37.51,0,0,0-3.93,6.25,9.67,9.67,0,0,0-1.19,3.32q0,.84.81.84c1.13,0,3-2,5.69-6,.54-.81,1-1.22,1.47-1.22s.65.25.65.75c0,.81-.79,2.37-2.37,4.66a18.12,18.12,0,0,1-4.31,4.59A5.27,5.27,0,0,1,45,50.63,2,2,0,0,1,43,49.47a3.39,3.39,0,0,1-.37-1.59,13.51,13.51,0,0,1,2-6.35q.47-.84,2.81-4.81-6.37,3.22-10.78,13.91c-.27.81-.69,1.21-1.25,1.21a1.25,1.25,0,0,1-1-.4,1.58,1.58,0,0,1-.37-1.06c0-.69.66-2.64,2-5.85q3.7-8.94,6.93-15.12t7.16-13a12.37,12.37,0,0,1,1.47-2.19,1.56,1.56,0,0,1,1.12-.56,1.17,1.17,0,0,1,1,.59,1.67,1.67,0,0,1,.31,1,4.62,4.62,0,0,1-1,2.35q-3.37,5.21-6.71,11.46A72.52,72.52,0,0,0,41.92,38.22Z" transform="translate(-2.01 -8.44)" style="fill:#3fa9f5"/><path d="M66.39,30.84C68.1,30.84,69,31.89,69,34q0,4.16-3.84,10.53c-2.8,4.6-5.49,6.91-8.1,6.91a2.79,2.79,0,0,1-2.65-1.69,4.26,4.26,0,0,1-.44-2A17.43,17.43,0,0,1,56.67,39a21,21,0,0,1,6-6.75A6.64,6.64,0,0,1,66.39,30.84ZM63.14,42.66c-.52-.42-.78-.74-.78-1s.33-.63,1-1.38q2.81-3.15,2.81-5.09a.89.89,0,0,0-.16-.5.82.82,0,0,0-.78-.47c-.67,0-1.64.65-2.94,1.94a19.85,19.85,0,0,0-3.81,5.15,11.85,11.85,0,0,0-1.53,5,1.57,1.57,0,0,0,.28.93,1.23,1.23,0,0,0,1,.57c1,0,2.08-.75,3.22-2.25a9.93,9.93,0,0,0,1.22-1.94A6.64,6.64,0,0,0,63.14,42.66Z" transform="translate(-2.01 -8.44)" style="fill:#3fa9f5"/><path d="M91.17,9.72c1,0,1.47.61,1.47,1.84q0,2.85-3.16,7.44a18.56,18.56,0,0,1-3,3.44,3.12,3.12,0,0,1-1.81,1,1.24,1.24,0,0,1-1.06-.59,1.43,1.43,0,0,1-.29-.88c0-.46.45-1.09,1.35-1.91a14.23,14.23,0,0,0,4.47-8.56,2.07,2.07,0,0,1,.84-1.4A2.17,2.17,0,0,1,91.17,9.72Z" transform="translate(-2.01 -8.44)" style="fill:#3fa9f5"/><path d="M96.73,30.25a5,5,0,0,1,2.91.69,2.4,2.4,0,0,1,1,2.09,5.61,5.61,0,0,1-1.38,3.56,9,9,0,0,1-3.94,2.63,7.28,7.28,0,0,1-2.4.53c-.88,0-1.31-.38-1.31-1.16a1.28,1.28,0,0,1,.75-1.18,18.88,18.88,0,0,1,2.12-.53,4.84,4.84,0,0,0,2.13-1.1,2.06,2.06,0,0,0,.84-1.56,1.19,1.19,0,0,0-.38-1,1.7,1.7,0,0,0-1.12-.31,7.35,7.35,0,0,0-4,1.47q-2.53,1.65-2.53,3.93A7.84,7.84,0,0,0,91,42.41a8.46,8.46,0,0,1,1.85,4.5,4.86,4.86,0,0,1-2.44,4.31,6.12,6.12,0,0,1-3.41,1A5.27,5.27,0,0,1,82.48,50a6.06,6.06,0,0,1-1.09-3.62,6.58,6.58,0,0,1,1.25-4.1,2.19,2.19,0,0,1,1.69-1.09c.52,0,.78.21.78.62a1.84,1.84,0,0,1-.28.75,6.61,6.61,0,0,0-.72,3.16,3.45,3.45,0,0,0,1.09,2.59,3.1,3.1,0,0,0,2.22.94,2.38,2.38,0,0,0,1.91-.81,2.7,2.7,0,0,0,.56-1.75,6.49,6.49,0,0,0-1.5-3.41,9.17,9.17,0,0,1-2.06-5.22q0-3.12,3.4-5.53A12,12,0,0,1,96.73,30.25Z" transform="translate(-2.01 -8.44)" style="fill:#3fa9f5"/><path d="M138.26,31.78a79.26,79.26,0,0,0-13.34,4.06c-.17.34-.33.68-.5,1a60,60,0,0,0-5.81,15.68c-.21,1.17-.68,1.75-1.41,1.75a1.81,1.81,0,0,1-1.44-.81,2.13,2.13,0,0,1-.5-1.34,17.44,17.44,0,0,1,.78-3.64,47.4,47.4,0,0,1,1.63-4.86c.21-.52.86-2,2-4.57.27-.6.54-1.24.81-1.9-.44.16-1,.41-1.81.75a2.45,2.45,0,0,1-.91.22c-.64,0-1-.49-1-1.47a1.6,1.6,0,0,1,.82-1.47,11.65,11.65,0,0,1,2.21-1c1.13-.42,2-.76,2.66-1q.63-1.09,2.38-4.5c.2-.42.9-1.6,2.09-3.56A119.32,119.32,0,0,0,133.54,13a29.3,29.3,0,0,1,1.75-3.72,1.86,1.86,0,0,1,1.5-.81,1.29,1.29,0,0,1,1.47,1.44q0,3.27-8.93,17.71a27,27,0,0,0-2.16,4.13l1.56-.44q6.38-1.84,11.6-3.22,3.58-6.61,8.81-14.68c.6-1,1-1.56,1.06-1.79.5-.89,1-1.34,1.59-1.34a1.46,1.46,0,0,1,1.19.59,1.81,1.81,0,0,1,.38,1.1,7.32,7.32,0,0,1-1.22,3.22q-.28.5-2.56,4-4,6.18-5,8.28c.61-.06,1.07-.1,1.38-.1,1.64,0,2.47.41,2.47,1.22a2,2,0,0,1-.78,1.47,1.87,1.87,0,0,1-1.32.56h-1.21a13.39,13.39,0,0,0-2.25.29q-6.63,11.81-8.66,20.71c-.33,1.34-.86,2-1.56,2a1.93,1.93,0,0,1-1.53-1,2.7,2.7,0,0,1-.47-1.53Q130.61,48,138.26,31.78Z" transform="translate(-2.01 -8.44)" style="fill:#3fa9f5"/><path d="M146.51,45v.56a2,2,0,0,0,.35,1.19,2.86,2.86,0,0,0,2.56,1.16q3.9,0,9-6c.6-.69,1.11-1,1.53-1a.81.81,0,0,1,.63.34.82.82,0,0,1,.18.47c0,.81-1,2.19-3,4.12a22.63,22.63,0,0,1-5,3.72A10.43,10.43,0,0,1,147.86,51a4.5,4.5,0,0,1-3.69-1.63,4.71,4.71,0,0,1-.91-3.06q0-5.28,5-10.34,4-4.12,7-4.13a2.4,2.4,0,0,1,1.47.5,2.11,2.11,0,0,1,.81,1.72A8,8,0,0,1,156,38.09,16.25,16.25,0,0,1,146.51,45Zm.69-2.44a12.81,12.81,0,0,0,3.44-1.68,14,14,0,0,0,3.47-3.82,2.61,2.61,0,0,0,.47-1.34q0-.63-.6-.63a4.41,4.41,0,0,0-2.31,1.22A16.05,16.05,0,0,0,147.2,42.56Z" transform="translate(-2.01 -8.44)" style="fill:#3fa9f5"/><path d="M167.33,40.72a61,61,0,0,1,7.06-6.41,30.49,30.49,0,0,1,3.06-2.09,3.32,3.32,0,0,1,1-.47c.31,0,.63.23.94.69a1.17,1.17,0,0,1,.28.69c0,.37-.4.88-1.19,1.53-2.12,1.68-3.18,3-3.18,3.81q0,.72.81.72c.89,0,2.44-.74,4.62-2.22a1.86,1.86,0,0,1,.94-.38.75.75,0,0,1,.5.25.84.84,0,0,1,.28.6c0,.62-.87,1.58-2.62,2.87a8.85,8.85,0,0,1-5.22,2.07,3.38,3.38,0,0,1-1.85-.54,1.67,1.67,0,0,1-.71-1.56,3.33,3.33,0,0,1,.65-1.78,31.3,31.3,0,0,0-5.81,6A43.7,43.7,0,0,0,163.08,51c-.48,1-1.08,1.44-1.79,1.44s-1.15-.37-1.15-1.1.6-2.6,1.81-5.68A43.07,43.07,0,0,1,167.58,35q1.8-2.34,3-2.34a1.23,1.23,0,0,1,.75.25.92.92,0,0,1,.4.78,2.59,2.59,0,0,1-.62,1.31c-.09.1-.64.8-1.66,2.09A16.31,16.31,0,0,0,167.33,40.72Z" transform="translate(-2.01 -8.44)" style="fill:#3fa9f5"/><path d="M183.64,45v.56a2,2,0,0,0,.34,1.19,2.87,2.87,0,0,0,2.56,1.16q3.92,0,9-6c.6-.69,1.11-1,1.53-1a.79.79,0,0,1,.62.34.77.77,0,0,1,.19.47c0,.81-1,2.19-3,4.12a22.63,22.63,0,0,1-5,3.72A10.47,10.47,0,0,1,185,51a4.53,4.53,0,0,1-3.69-1.63,4.77,4.77,0,0,1-.9-3.06q0-5.28,5-10.34c2.68-2.75,5-4.13,7-4.13a2.4,2.4,0,0,1,1.47.5,2.11,2.11,0,0,1,.81,1.72,8,8,0,0,1-1.53,4.06A16.28,16.28,0,0,1,183.64,45Zm.69-2.44a12.73,12.73,0,0,0,3.43-1.68,13.84,13.84,0,0,0,3.47-3.82,2.61,2.61,0,0,0,.47-1.34c0-.42-.2-.63-.59-.63a4.4,4.4,0,0,0-2.32,1.22A15.94,15.94,0,0,0,184.33,42.56Z" transform="translate(-2.01 -8.44)" style="fill:#3fa9f5"/><path d="M208,48.72a1.43,1.43,0,0,1,1.16.62,1.73,1.73,0,0,1,.31,1,7,7,0,0,1-.81,3.09,2.55,2.55,0,0,1-2.22,1.72c-1,0-1.44-.54-1.44-1.63a6.46,6.46,0,0,1,1-3.31C206.55,49.23,207.22,48.72,208,48.72ZM225,14.28c-2.91,0-6.24,1.91-10,5.72-1.25,1.27-2.19,1.91-2.82,1.91a1.05,1.05,0,0,1-.75-.35,1.17,1.17,0,0,1-.34-.81q0-2,3.75-5,5-4.07,10-4.06a6.78,6.78,0,0,1,4.37,1.5,5.14,5.14,0,0,1,2.07,4.25q0,2.94-3,6.15a48.4,48.4,0,0,1-7.06,6,53.57,53.57,0,0,0-4.85,3.78,19,19,0,0,0-3.62,4.53q-.69,1.47-1.35,2.79a2.31,2.31,0,0,1-2.09,1.53c-.94,0-1.41-.42-1.41-1.25s.83-2.77,2.47-5.38A24.76,24.76,0,0,1,216,29.66q2.25-1.78,4.79-3.53A42.37,42.37,0,0,0,226.17,22c1.64-1.65,2.47-3.23,2.47-4.75a2.73,2.73,0,0,0-.89-2.23A4.21,4.21,0,0,0,225,14.28Z" transform="translate(-2.01 -8.44)" style="fill:#3fa9f5"/></svg>